<svg id="Layer_1" data-name="Layer 1" xmlns="http://www.w3.org/2000/svg" viewBox="0 0 120.08 91.6"><defs><style>.cls-1,.cls-2{fill:none;stroke:#323337;stroke-miterlimit:10;}.cls-1{stroke-linecap:round;stroke-width:9.01px;}.cls-2{stroke-width:2.39px;}.cls-3{fill:#323337;}</style></defs><title>airPressureIcon1</title><path class="cls-1" d="M14.67,104.08a55.54,55.54,0,1,1,97,0" transform="translate(-3.15 -16.99)"/><rect class="cls-2" x="58.01" y="13.38" width="4.06" height="13.59" rx="2.03" ry="2.03"/><rect class="cls-2" x="47.69" y="32.75" width="4.06" height="13.59" rx="2.03" ry="2.03" transform="translate(-13.67 2.4) rotate(-20)"/><rect class="cls-2" x="35.84" y="39.59" width="4.06" height="13.59" rx="2.03" ry="2.03" transform="translate(-24.1 18.2) rotate(-40)"/><rect class="cls-2" x="27.05" y="50.07" width="4.06" height="13.59" rx="2.03" ry="2.03" transform="translate(-37.85 36.62) rotate(-60)"/><rect class="cls-2" x="22.37" y="62.92" width="4.06" height="13.59" rx="2.03" ry="2.03" transform="matrix(0.17, -0.98, 0.98, 0.17, -51.64, 64.64)"/><rect class="cls-2" x="22.37" y="76.6" width="4.06" height="13.59" rx="2.03" ry="2.03" transform="translate(-56.64 104.91) rotate(-100)"/><rect class="cls-2" x="99.94" y="76.6" width="4.06" height="13.59" rx="2.03" ry="2.03" transform="translate(198.66 -19.54) rotate(100)"/><rect class="cls-2" x="99.94" y="62.92" width="4.06" height="13.59" rx="2.03" ry="2.03" transform="translate(149.77 -59.81) rotate(80)"/><rect class="cls-2" x="95.27" y="50.07" width="4.06" height="13.59" rx="2.03" ry="2.03" transform="translate(94.74 -72.82) rotate(60)"/><rect class="cls-2" x="86.47" y="39.59" width="4.06" height="13.59" rx="2.03" ry="2.03" transform="translate(47.37 -63.03) rotate(40)"/><rect class="cls-2" x="74.63" y="32.75" width="4.06" height="13.59" rx="2.03" ry="2.03" transform="translate(15 -40.83) rotate(20)"/><circle class="cls-3" cx="60.04" cy="65.61" r="2.01"/><rect class="cls-3" x="65.14" y="48.72" width="2.99" height="28.72" rx="1.49" ry="1.49" transform="translate(8.82 -27.6) rotate(10)"/></svg>