<svg id="Layer_1" data-name="Layer 1" xmlns="http://www.w3.org/2000/svg" viewBox="0 0 96.02 118.75"><defs><style>.cls-1,.cls-2{fill:none;stroke:#323337;stroke-linecap:round;stroke-linejoin:round;}.cls-1{stroke-width:8px;}.cls-2{stroke-width:5.29px;}</style></defs><title>humidityIcon</title><path class="cls-1" d="M23.62,52.76,57.93,7.12,92.24,52.76a38.32,38.32,0,0,1,9.1,26.4C100.46,100,82.19,117,59.75,117.84A45.53,45.53,0,0,1,31,109.21" transform="translate(-9.35 -3.12)"/><path class="cls-2" d="M12,66.38l6.1,1.7a10.85,10.85,0,0,0,8.13-.93l1.38-.77a10.83,10.83,0,0,1,10.4,0h0a10.83,10.83,0,0,0,10.4,0h0a10.83,10.83,0,0,1,10.4,0l5.2,2.9" transform="translate(-9.35 -3.12)"/><path class="cls-2" d="M12,93.43l6.1,1.7a10.85,10.85,0,0,0,8.13-.93l1.38-.77a10.83,10.83,0,0,1,10.4,0h0a10.83,10.83,0,0,0,10.4,0h0a10.83,10.83,0,0,1,10.4,0l5.2,2.9" transform="translate(-9.35 -3.12)"/><path class="cls-2" d="M12,79.77l6.1,1.7a10.85,10.85,0,0,0,8.13-.93l1.38-.77a10.83,10.83,0,0,1,10.4,0h0a10.83,10.83,0,0,0,10.4,0h0a10.83,10.83,0,0,1,10.4,0l5.2,2.9" transform="translate(-9.35 -3.12)"/></svg>